<?xml version="1.0" standalone="no"?>
<!DOCTYPE svg PUBLIC "-//W3C//DTD SVG 20010904//EN"
 "http://www.w3.org/TR/2001/REC-SVG-20010904/DTD/svg10.dtd">
<svg version="1.0" xmlns="http://www.w3.org/2000/svg"
 width="635.000000pt" height="635.000000pt" viewBox="0 0 635.000000 635.000000"
 preserveAspectRatio="xMidYMid meet">
<metadata>
Created by potrace 1.14, written by Peter Selinger 2001-2017
</metadata>
<g transform="translate(0.000000,635.000000) scale(0.100000,-0.100000)"
fill="#000000" stroke="none">
<path d="M3108 6345 c-1 -1 -28 -5 -58 -8 -375 -40 -643 -192 -745 -422 -91
-207 -103 -495 -34 -825 56 -263 263 -873 643 -1893 53 -142 94 -261 92 -266
-3 -4 -23 -14 -46 -21 -51 -17 -105 -68 -120 -116 -7 -19 -10 -66 -8 -103 3
-53 12 -84 47 -156 56 -116 62 -137 61 -215 -1 -93 -1 -98 -56 -330 -19 -80
-41 -172 -49 -205 -22 -95 -63 -287 -70 -325 -3 -19 -12 -71 -20 -115 -8 -44
-17 -96 -19 -115 -2 -19 -7 -51 -10 -70 -27 -148 -39 -488 -23 -610 4 -25 9
-63 12 -85 10 -74 57 -205 95 -263 87 -135 202 -197 375 -201 289 -7 459 183
501 555 13 113 7 367 -11 514 -18 139 -41 283 -75 453 -35 173 -55 260 -126
556 -23 95 -24 100 -32 171 -12 108 0 167 54 276 47 94 49 100 49 184 0 76 -3
91 -25 123 -24 36 -124 97 -158 97 -9 0 -12 6 -7 18 19 49 354 959 385 1047
233 659 337 986 355 1117 3 24 8 50 10 58 26 92 38 345 23 475 -9 75 -41 202
-67 260 -96 217 -324 363 -656 420 -88 15 -277 29 -287 20z m49 -337 l0 -298
-23 0 c-44 0 -129 -40 -181 -85 -134 -117 -148 -319 -33 -465 39 -49 116 -95
186 -111 l51 -11 0 -1044 c0 -574 -3 -1044 -6 -1045 -3 0 -14 -2 -23 -4 -18
-3 -26 11 -38 65 -4 19 -24 107 -44 195 -20 88 -38 169 -41 180 -2 11 -6 31
-9 45 -6 27 -24 113 -30 145 -26 130 -83 424 -90 460 -2 11 -7 38 -11 60 -22
124 -54 307 -60 355 -4 24 -8 47 -10 50 -1 3 -6 28 -9 55 -9 61 -16 111 -22
139 -2 11 -7 39 -10 61 -10 79 -13 101 -24 175 -7 41 -13 89 -15 105 -4 42
-15 124 -20 160 -25 163 -23 422 6 588 47 273 190 461 387 511 26 7 52 13 58
13 7 0 11 -92 11 -299z m161 270 c101 -38 197 -132 256 -251 85 -173 116 -416
92 -732 -4 -55 -9 -109 -11 -120 -2 -11 -7 -42 -10 -70 -3 -27 -12 -95 -20
-150 -8 -55 -17 -122 -20 -150 -4 -27 -8 -57 -10 -65 -2 -8 -7 -35 -10 -60 -3
-25 -15 -94 -25 -155 -11 -60 -22 -128 -25 -150 -9 -61 -14 -95 -25 -150 -5
-27 -13 -68 -16 -90 -3 -22 -7 -42 -9 -45 -2 -3 -6 -24 -9 -46 -6 -39 -11 -64
-21 -114 -2 -14 -7 -38 -10 -55 -5 -33 -8 -46 -31 -158 -8 -42 -18 -90 -20
-105 -3 -15 -11 -55 -19 -90 -8 -34 -17 -77 -20 -95 -3 -17 -17 -81 -31 -142
-14 -60 -27 -121 -30 -135 -21 -103 -47 -195 -56 -201 -5 -4 -19 -4 -29 -2
-18 5 -19 34 -19 1048 l0 1043 43 7 c100 17 208 100 249 191 31 72 35 185 8
256 -41 111 -145 196 -259 214 l-41 7 0 297 0 298 38 -5 c20 -3 61 -14 90 -25z
m-378 -10 c-152 -93 -259 -309 -288 -578 -12 -118 -5 -425 12 -530 5 -30 27
-193 31 -237 2 -17 8 -57 14 -90 5 -32 13 -83 16 -113 4 -30 8 -57 10 -60 2
-3 6 -27 9 -55 4 -27 11 -72 16 -100 5 -27 11 -63 14 -80 13 -87 18 -114 26
-160 5 -27 12 -66 15 -85 3 -19 15 -82 26 -140 11 -58 22 -121 25 -140 3 -19
9 -51 14 -70 5 -19 12 -53 16 -75 7 -48 79 -394 99 -480 11 -49 47 -208 70
-312 4 -15 1 -23 -8 -23 -7 0 -24 33 -38 73 -49 137 -311 852 -320 872 -5 11
-15 38 -22 60 -8 22 -38 105 -66 185 -182 507 -297 886 -325 1066 -24 151 -26
181 -27 284 0 366 125 596 391 717 84 38 112 49 185 67 128 33 153 34 105 4z
m535 8 c46 -9 206 -66 251 -89 195 -99 316 -269 349 -492 4 -22 8 -51 11 -65
6 -31 6 -266 0 -300 -3 -14 -7 -45 -10 -70 -3 -25 -8 -56 -11 -70 -3 -14 -8
-41 -11 -60 -18 -100 -83 -331 -144 -510 -92 -275 -246 -712 -285 -810 -7 -19
-37 -100 -65 -180 -29 -80 -71 -197 -95 -260 -24 -63 -69 -186 -101 -272 -36
-96 -64 -158 -72 -158 -8 0 -11 7 -8 18 3 9 10 40 16 67 15 67 16 70 34 145 8
36 17 76 20 90 2 14 16 79 31 145 28 130 91 439 100 495 3 19 9 55 15 80 8 41
31 163 45 250 3 19 15 85 25 145 10 61 21 126 24 145 3 19 8 46 10 60 3 14 7
45 10 70 3 25 8 55 11 68 2 12 11 73 20 135 8 62 17 123 19 137 3 14 8 48 11
75 4 28 8 61 10 75 20 145 27 444 12 576 -11 101 -52 247 -93 330 -40 82 -113
168 -181 214 l-48 32 40 -6 c22 -3 49 -8 60 -10z"/>
</g>
</svg>
