<?xml version="1.0" encoding="UTF-8"?><svg id="Layer_1" xmlns="http://www.w3.org/2000/svg" viewBox="0 0 189.93 634.58"><defs><style>.cls-1{fill:#fff;}.cls-2{fill:none;}.cls-3{fill:#fff100;}.cls-4{fill:#006838;}</style></defs><g><g><path class="cls-2" d="M102.13,340.21c5.26-21.63,26.41-112.03,40.39-219.3,6.42-49.05,.45-84.79-17.24-103.42-11.27-11.88-24.09-13.56-29.03-13.76V340.01c.12,0,.21,.01,.35,.01,1.97,0,3.79,.07,5.53,.18Z"/><path class="cls-2" d="M47.42,120.91c14.02,107.5,35.22,198.02,40.4,219.41,1.99-.17,3.68-.23,5.36-.25V3.75c-5.34,.33-17.73,2.37-28.54,13.79-17.67,18.64-23.59,54.37-17.22,103.37Z"/><path class="cls-2" d="M84.77,340.75c-5.33-21.96-26.44-112.29-40.41-219.43-6.63-50.71-.54-86.39,18.07-105.97,4.98-5.25,10.21-8.52,15.06-10.71C56.92,7.44,21.07,16.72,9.55,47.59c-16.28,43.67,1.41,95.08,18.52,144.81l1.54,4.53c15.03,43.77,44.19,122.07,52.44,144.2,.93-.17,1.81-.26,2.72-.39Z"/><path class="cls-2" d="M180.41,47.59C168.93,16.85,133.17,7.5,112.45,4.64c4.84,2.19,10.06,5.47,15.06,10.71,13.76,14.49,20.65,37.75,20.65,69.35,0,11.18-.85,23.37-2.56,36.62-13.94,106.81-34.94,196.87-40.35,219.19,.92,.1,1.91,.18,2.76,.31,8.43-22.54,37.37-100.31,52.32-143.89l1.57-4.53c17.1-49.73,34.79-101.14,18.52-144.81Z"/><path class="cls-4" d="M183.28,46.53C166.15,.56,97.84,.29,97.17,.29v.36c-.38-.02-.61-.01-.92-.03h-.03c-.13,0-.26,0-.39-.01-.18,0-.4-.02-.86-.02s-.63,.01-.82,.02c-.13,0-.29,0-.43,.01h-.55v.02c-.25,0-.46,.02-.74,.04V.32c-.71,0-68.63,.24-85.79,46.2-16.65,44.67,1.21,96.62,18.5,146.88l1.56,4.53c14.97,43.59,43.88,121.29,52.32,143.9-4.97,1.24-9.84,3.21-13.36,6.68-3.51,3.49-5.29,7.9-5.29,13.19,0,10.47,2.99,15.86,5.88,21.1,2.84,5.12,5.54,9.92,5.54,19.68,0,3.39-.33,7.13-.97,11.42-.77,4.79-2.79,13.19-5.35,23.83-7.34,30.3-19.58,80.97-19.58,122.84,0,48.32,16.32,73.18,48.55,73.97v.04h3.08v-.07c32.03-.88,48.27-25.79,48.27-73.94,0-41.9-12.25-92.54-19.58-122.84-2.56-10.64-4.58-19.05-5.33-23.83-.67-4.29-1-8.02-1-11.42,0-9.76,2.7-14.6,5.54-19.7,2.89-5.21,5.87-10.6,5.87-21.07,0-5.26-1.75-9.64-5.21-13.1-2.62-2.61-7.23-5.51-14.99-7.19,8.64-23.11,37.31-100.14,52.19-143.48l1.57-4.53c12.39-36.09,25.11-73.03,25.11-107.59,0-13.55-1.95-26.68-6.65-39.29ZM96.25,3.72c4.93,.2,17.75,1.88,29.03,13.76,17.69,18.64,23.66,54.37,17.24,103.42-13.98,107.27-35.13,197.67-40.39,219.3-1.74-.11-3.55-.19-5.53-.18-.15,0-.24-.01-.35-.01V3.72Zm-3.08,.03V340.06c-1.67,.02-3.37,.08-5.36,.25-5.18-21.39-26.38-111.91-40.4-219.41-6.37-48.99-.45-84.73,17.22-103.37,10.81-11.42,23.2-13.46,28.54-13.79ZM29.61,196.93l-1.54-4.53C10.96,142.67-6.74,91.26,9.55,47.59,21.07,16.72,56.92,7.44,77.49,4.64c-4.85,2.19-10.08,5.46-15.06,10.71-18.61,19.58-24.7,55.26-18.07,105.97,13.97,107.14,35.08,197.46,40.41,219.43-.92,.13-1.79,.22-2.72,.39-8.25-22.13-37.41-100.43-52.44-144.2Zm94.28,153.83c2.86,2.87,4.31,6.54,4.31,10.94,0,9.71-2.68,14.5-5.5,19.58-2.9,5.21-5.92,10.61-5.92,21.19,0,3.55,.33,7.44,1.04,11.89,.74,4.95,2.8,13.36,5.38,24.07,7.31,30.18,19.49,80.62,19.49,122.13,0,46.9-15.73,70.76-46.73,70.9h-.28c-31-.15-46.75-24-46.75-70.9,0-41.51,12.22-91.95,19.51-122.13,2.6-10.71,4.64-19.12,5.41-24.07,.68-4.44,1.01-8.34,1.01-11.89,0-10.53-2.99-15.98-5.92-21.19-2.81-5.09-5.5-9.88-5.5-19.58,0-4.44,1.47-8.1,4.38-10.99,6.94-6.87,20.2-7.7,27.48-7.61h.42c.15,0,.44,.03,.88,0,16.15-.03,23.76,4.16,27.28,7.66Zm38.01-158.36l-1.57,4.53c-14.95,43.58-43.89,121.35-52.32,143.89-.85-.14-1.84-.21-2.76-.31,5.41-22.32,26.41-112.37,40.35-219.19,1.71-13.26,2.56-25.44,2.56-36.62,0-31.6-6.89-54.85-20.65-69.35-5-5.24-10.22-8.52-15.06-10.71,20.72,2.86,56.48,12.21,67.96,42.95,16.27,43.67-1.42,95.08-18.52,144.81Z"/><path class="cls-1" d="M95.72,343.1h-.42c-7.27-.09-20.53,.74-27.48,7.61-2.91,2.89-4.38,6.55-4.38,10.99,0,9.71,2.69,14.5,5.5,19.58,2.93,5.21,5.92,10.65,5.92,21.19,0,3.55-.33,7.44-1.01,11.89-.76,4.95-2.8,13.36-5.41,24.07-7.29,30.18-19.51,80.62-19.51,122.13,0,46.9,15.75,70.76,46.75,70.9h.28c31-.15,46.73-24,46.73-70.9,0-41.51-12.18-91.95-19.49-122.13-2.58-10.71-4.65-19.12-5.38-24.07-.71-4.44-1.04-8.34-1.04-11.89,0-10.57,3.01-15.98,5.92-21.19,2.82-5.09,5.5-9.88,5.5-19.58,0-4.41-1.45-8.07-4.31-10.94-3.52-3.5-11.13-7.69-27.28-7.66-.44,.03-.74,0-.88,0Z"/></g><g><path class="cls-3" d="M63.09,96.94c0-17.61,14.26-31.89,31.86-31.89s31.9,14.29,31.9,31.89-14.29,31.89-31.9,31.89-31.86-14.29-31.86-31.89Z"/><path class="cls-4" d="M128.38,96.94c0,18.42-15,33.43-33.43,33.43s-33.39-15-33.39-33.43,14.99-33.43,33.39-33.43,33.43,15.03,33.43,33.43Zm-63.75,0c0,16.74,13.6,30.35,30.32,30.35s30.36-13.61,30.36-30.35-13.62-30.32-30.36-30.32-30.32,13.58-30.32,30.32Z"/></g></g><path class="cls-4" d="M87.95,.62s7.21-1.14,14.1-.33l-3.16,1.8h-12.84l1.9-1.47Z"/></svg>